<svg width="43" height="44" viewBox="0 0 43 44" fill="none" xmlns="http://www.w3.org/2000/svg">
<path d="M0.875 43.3125H10.5C10.6823 43.3125 10.8572 43.2401 10.9861 43.1111C11.1151 42.9822 11.1875 42.8073 11.1875 42.625V36.4375C11.1864 35.5262 10.8239 34.6524 10.1795 34.008C9.53505 33.3636 8.66135 33.0011 7.75 33H7.60837C8.11192 32.6012 8.47883 32.0555 8.65819 31.4387C8.83756 30.8219 8.82048 30.1645 8.60933 29.5579C8.39818 28.9512 8.00343 28.4253 7.47986 28.0532C6.95629 27.681 6.32986 27.4811 5.6875 27.4811C5.04514 27.4811 4.41871 27.681 3.89514 28.0532C3.37157 28.4253 2.97682 28.9512 2.76567 29.5579C2.55452 30.1645 2.53744 30.8219 2.71681 31.4387C2.89617 32.0555 3.26308 32.6012 3.76662 33H3.625C2.71365 33.0011 1.83995 33.3636 1.19553 34.008C0.551106 34.6524 0.188592 35.5262 0.1875 36.4375V42.625C0.1875 42.8073 0.259933 42.9822 0.388864 43.1111C0.517795 43.2401 0.692664 43.3125 0.875 43.3125ZM5.6875 28.875C6.02744 28.875 6.35974 28.9758 6.64239 29.1647C6.92503 29.3535 7.14533 29.622 7.27542 29.936C7.40551 30.2501 7.43954 30.5957 7.37322 30.9291C7.30691 31.2625 7.14321 31.5687 6.90284 31.8091C6.66247 32.0495 6.35622 32.2132 6.02281 32.2795C5.68941 32.3458 5.34382 32.3118 5.02976 32.1817C4.7157 32.0516 4.44727 31.8313 4.25841 31.5486C4.06955 31.266 3.96875 30.9337 3.96875 30.5938C3.96875 30.1379 4.14983 29.7007 4.47216 29.3784C4.79449 29.0561 5.23166 28.875 5.6875 28.875ZM1.5625 36.4375C1.5625 35.8905 1.7798 35.3659 2.16659 34.9791C2.55339 34.5923 3.07799 34.375 3.625 34.375H7.75C8.29701 34.375 8.82161 34.5923 9.20841 34.9791C9.5952 35.3659 9.8125 35.8905 9.8125 36.4375V41.9375H1.5625V36.4375ZM15.3125 13.75H27.6875C27.8698 13.75 28.0447 13.6776 28.1736 13.5486C28.3026 13.4197 28.375 13.2448 28.375 13.0625V1.375C28.375 1.19266 28.3026 1.0178 28.1736 0.888864C28.0447 0.759933 27.8698 0.6875 27.6875 0.6875H15.3125C15.1302 0.6875 14.9553 0.759933 14.8264 0.888864C14.6974 1.0178 14.625 1.19266 14.625 1.375V13.0625C14.625 13.2448 14.6974 13.4197 14.8264 13.5486C14.9553 13.6776 15.1302 13.75 15.3125 13.75ZM20.8125 2.0625H22.1875V4.8125H20.8125V2.0625ZM16 2.0625H19.4375V5.5C19.4375 5.68234 19.5099 5.8572 19.6389 5.98614C19.7678 6.11507 19.9427 6.1875 20.125 6.1875H22.875C23.0573 6.1875 23.2322 6.11507 23.3611 5.98614C23.4901 5.8572 23.5625 5.68234 23.5625 5.5V2.0625H27V12.375H16V2.0625ZM40.3623 36.8816L41.9002 33.9776C42.2562 33.3051 42.4323 32.552 42.4114 31.7913C42.3905 31.0307 42.1732 30.2884 41.7807 29.6365C41.3882 28.9846 40.8338 28.4453 40.1714 28.0709C39.5089 27.6965 38.7609 27.4997 38 27.4997C37.2391 27.4997 36.4911 27.6965 35.8286 28.0709C35.1662 28.4453 34.6118 28.9846 34.2193 29.6365C33.8268 30.2884 33.6095 31.0307 33.5886 31.7913C33.5677 32.552 33.7438 33.3051 34.0998 33.9776L35.6377 36.8816C34.1459 37.4749 33.1875 38.6059 33.1875 39.875C33.1875 41.8 35.3016 43.3125 38 43.3125C40.6984 43.3125 42.8125 41.8 42.8125 39.875C42.8125 38.6059 41.8541 37.4749 40.3623 36.8816ZM35.3187 33.3341C35.0735 32.8712 34.9522 32.3527 34.9665 31.829C34.9808 31.3052 35.1304 30.7942 35.4005 30.3453C35.6707 29.8964 36.0524 29.5251 36.5085 29.2673C36.9645 29.0095 37.4795 28.874 38.0034 28.874C38.5273 28.874 39.0423 29.0095 39.4984 29.2673C39.9545 29.5251 40.3362 29.8964 40.6063 30.3453C40.8765 30.7942 41.026 31.3052 41.0404 31.829C41.0547 32.3527 40.9334 32.8712 40.6881 33.3341L38 38.4058L35.3187 33.3341ZM38 41.9375C36.1369 41.9375 34.5625 40.9929 34.5625 39.875C34.5625 39.1579 35.25 38.4711 36.2812 38.1019L37.3902 40.1968C37.4486 40.3073 37.5361 40.3997 37.6432 40.4643C37.7503 40.5288 37.8729 40.5629 37.9979 40.5629C38.123 40.5629 38.2456 40.5288 38.3527 40.4643C38.4598 40.3997 38.5472 40.3073 38.6057 40.1968L39.7188 38.1019C40.75 38.4711 41.4375 39.1579 41.4375 39.875C41.4375 40.9929 39.8631 41.9375 38 41.9375Z" fill="white"/>
<path d="M40.0623 31.625C40.0623 31.2171 39.9414 30.8184 39.7147 30.4792C39.4881 30.14 39.166 29.8757 38.7891 29.7195C38.4122 29.5634 37.9976 29.5226 37.5975 29.6022C37.1974 29.6818 36.8299 29.8782 36.5414 30.1666C36.253 30.4551 36.0566 30.8226 35.977 31.2227C35.8974 31.6228 35.9382 32.0375 36.0943 32.4143C36.2504 32.7912 36.5148 33.1133 36.854 33.3399C37.1932 33.5666 37.5919 33.6875 37.9998 33.6875C38.5468 33.6875 39.0715 33.4702 39.4582 33.0835C39.845 32.6967 40.0623 32.1721 40.0623 31.625ZM37.3123 31.625C37.3123 31.4891 37.3527 31.3562 37.4282 31.2431C37.5037 31.13 37.6111 31.0419 37.7367 30.9899C37.8624 30.9378 38.0006 30.9242 38.134 30.9508C38.2673 30.9773 38.3898 31.0428 38.486 31.1389C38.5821 31.2351 38.6476 31.3576 38.6741 31.4909C38.7007 31.6243 38.687 31.7625 38.635 31.8881C38.583 32.0138 38.4949 32.1211 38.3818 32.1967C38.2687 32.2722 38.1358 32.3125 37.9998 32.3125C37.8175 32.3125 37.6426 32.2401 37.5137 32.1112C37.3848 31.9823 37.3123 31.8074 37.3123 31.625ZM26.9613 23.5084C27.0013 23.3613 27.0108 23.2075 26.9893 23.0566C26.9677 22.9056 26.9157 22.7606 26.8362 22.6305L26.0607 21.3462C25.8994 21.0889 25.6459 20.9028 25.352 20.8262C25.058 20.7495 24.7459 20.788 24.4795 20.9337L24.3014 21.0327C24.0338 20.8434 23.7475 20.6821 23.4468 20.5515V20.3989C23.4434 20.0912 23.318 19.7974 23.0983 19.5821C22.8785 19.3667 22.5823 19.2473 22.2746 19.25H20.725C20.4178 19.2482 20.1224 19.3681 19.9034 19.5835C19.6843 19.799 19.5595 20.0924 19.5563 20.3995V20.5522C19.2561 20.682 18.9698 20.8419 18.7017 21.0293L18.523 20.931C18.2565 20.7851 17.9444 20.7465 17.6504 20.8232C17.3565 20.8999 17.1029 21.086 16.9417 21.3435L16.1669 22.627C16.0872 22.7572 16.0349 22.9023 16.0133 23.0534C15.9917 23.2045 16.0011 23.3584 16.0411 23.5057C16.0818 23.6554 16.1522 23.7954 16.2481 23.9174C16.344 24.0394 16.4635 24.1409 16.5993 24.2159L16.7478 24.2977C16.7167 24.5966 16.7167 24.898 16.7478 25.1969L16.5993 25.2787C16.4635 25.3537 16.344 25.4552 16.2481 25.5772C16.1522 25.6992 16.0818 25.8392 16.0411 25.9889C16.0012 26.1361 15.9917 26.2898 16.0132 26.4408C16.0347 26.5917 16.0868 26.7367 16.1662 26.8669L16.9417 28.1511C17.1027 28.4089 17.3562 28.5952 17.6503 28.6719C17.9443 28.7486 18.2566 28.7099 18.523 28.5636L18.701 28.4646C18.9686 28.6539 19.255 28.8152 19.5556 28.9459V29.0985C19.5583 29.4062 19.683 29.7002 19.9022 29.9161C20.1214 30.132 20.4173 30.2521 20.725 30.25H22.2746C22.5819 30.2519 22.8773 30.132 23.0963 29.9166C23.3153 29.7011 23.4401 29.4077 23.4434 29.1005V28.9479C23.7436 28.8181 24.0299 28.6582 24.298 28.4708L24.4767 28.5691C24.7431 28.7154 25.0553 28.7541 25.3494 28.6774C25.6434 28.6007 25.897 28.4144 26.058 28.1566L26.8328 26.873C26.9125 26.7429 26.9647 26.5978 26.9864 26.4467C27.008 26.2956 26.9986 26.1417 26.9586 25.9944C26.9178 25.8447 26.8474 25.7047 26.7515 25.5827C26.6556 25.4607 26.5362 25.3592 26.4003 25.2842L26.2518 25.2024C26.283 24.9035 26.283 24.6021 26.2518 24.3032L26.4003 24.2214C26.537 24.1464 26.6571 24.0446 26.7535 23.9221C26.8499 23.7996 26.9206 23.6589 26.9613 23.5084ZM24.903 24.75C24.9028 24.8941 24.8925 25.0379 24.872 25.1804C24.8422 25.4089 24.8821 25.641 24.9867 25.8463C25.0912 26.0516 25.2555 26.2204 25.4578 26.3306L25.5313 26.3705L24.9813 27.2773L24.8583 27.2085C24.6567 27.0999 24.4284 27.0508 24.2 27.0671C23.9716 27.0834 23.7526 27.1644 23.5685 27.3007C23.3352 27.4715 23.0811 27.612 22.8123 27.7187C22.5947 27.8016 22.4071 27.9481 22.2739 28.1392C22.1408 28.3302 22.0682 28.5569 22.0657 28.7898V28.875H20.9285V28.7905C20.9261 28.5577 20.8536 28.331 20.7204 28.14C20.5872 27.9491 20.3996 27.8027 20.1819 27.72C19.9132 27.6125 19.6592 27.4716 19.4256 27.3007C19.2416 27.1646 19.0227 27.0838 18.7944 27.0676C18.5661 27.0514 18.338 27.1005 18.1366 27.2092L18.0142 27.278L17.4642 26.3712L17.5371 26.3313C17.7395 26.2214 17.9039 26.0527 18.0086 25.8475C18.1133 25.6423 18.1534 25.4102 18.1235 25.1818C18.0823 24.8961 18.0823 24.606 18.1235 24.3204C18.1534 24.0919 18.1134 23.8598 18.0089 23.6545C17.9043 23.4492 17.7401 23.2804 17.5378 23.1702L17.4642 23.1303L18.0142 22.2235L18.1373 22.2922C18.3388 22.4011 18.5671 22.4502 18.7956 22.4339C19.024 22.4176 19.243 22.3365 19.427 22.2001C19.6604 22.0293 19.9145 21.8888 20.1833 21.7821C20.4009 21.6992 20.5885 21.5526 20.7216 21.3616C20.8548 21.1705 20.9274 20.9438 20.9299 20.711V20.625H22.0725V20.7096C22.0749 20.9424 22.1474 21.1691 22.2806 21.3601C22.4138 21.551 22.6015 21.6974 22.8191 21.78C23.0878 21.8876 23.3419 22.0285 23.5754 22.1994C23.7596 22.3352 23.9785 22.4158 24.2067 22.432C24.4349 22.4482 24.663 22.3993 24.8645 22.2909L24.9868 22.2221L25.5368 23.1289L25.464 23.1688C25.2615 23.2787 25.0971 23.4474 24.9924 23.6526C24.8877 23.8578 24.8477 24.0899 24.8775 24.3183C24.8961 24.4614 24.9046 24.6057 24.903 24.75Z" fill="white"/>
<path d="M21.5 22.3438C21.0241 22.3438 20.5589 22.4849 20.1632 22.7493C19.7675 23.0137 19.4591 23.3895 19.2769 23.8292C19.0948 24.2689 19.0472 24.7527 19.14 25.2195C19.2329 25.6862 19.462 26.115 19.7986 26.4515C20.1351 26.788 20.5638 27.0172 21.0306 27.1101C21.4974 27.2029 21.9812 27.1553 22.4209 26.9731C22.8605 26.791 23.2364 26.4826 23.5008 26.0869C23.7652 25.6912 23.9063 25.226 23.9063 24.75C23.9063 24.1119 23.6528 23.4998 23.2015 23.0486C22.7502 22.5973 22.1382 22.3438 21.5 22.3438ZM21.5 25.7813C21.2961 25.7813 21.0967 25.7208 20.9271 25.6075C20.7575 25.4942 20.6253 25.3331 20.5473 25.1447C20.4692 24.9562 20.4488 24.7489 20.4886 24.5489C20.5284 24.3488 20.6266 24.1651 20.7708 24.0208C20.915 23.8766 21.0988 23.7784 21.2988 23.7386C21.4989 23.6988 21.7062 23.7192 21.8947 23.7973C22.0831 23.8753 22.2442 24.0075 22.3575 24.1771C22.4708 24.3467 22.5313 24.5461 22.5313 24.75C22.5313 25.0235 22.4226 25.2859 22.2292 25.4792C22.0358 25.6726 21.7735 25.7813 21.5 25.7813ZM16.6257 41.6158L17.7188 40.7812L16.449 39.1188C18.9827 39.8953 21.6616 40.0763 24.2768 39.6479C26.892 39.2194 29.373 38.193 31.5265 36.6486L30.7235 35.5321C28.762 36.9389 26.5047 37.8787 24.1243 38.2795C21.744 38.6803 19.3035 38.5317 16.9893 37.8449L18.8353 37.2674L18.4228 35.9549L14.4188 37.2075C14.313 37.2402 14.2167 37.2979 14.138 37.3758C14.0593 37.4537 14.0006 37.5494 13.9669 37.6548C13.9331 37.7603 13.9253 37.8723 13.9442 37.9814C13.963 38.0905 14.0079 38.1934 14.075 38.2814L16.6257 41.6158ZM37.2905 21.9024L36.0702 20.3212L34.9812 21.1606L37.5435 24.4833C37.6077 24.5667 37.6902 24.6342 37.7846 24.6807C37.879 24.7272 37.9828 24.7514 38.088 24.7514H38.1197C38.2302 24.7465 38.338 24.7149 38.4337 24.6593C38.5295 24.6038 38.6104 24.5259 38.6697 24.4324L40.915 20.8877L39.7532 20.152L38.6655 21.8708C38.5554 19.4336 37.9254 17.0481 36.8176 14.8744C35.7099 12.7006 34.1501 10.7889 32.2429 9.26754L31.3828 10.3407C33.133 11.737 34.5653 13.4905 35.584 15.4842C36.6027 17.4779 37.1845 19.666 37.2905 21.9024ZM4.45003 24.8401L5.81266 24.66C5.72799 24.0059 5.68619 23.347 5.68753 22.6875C5.68017 18.5888 7.27464 14.6493 10.1308 11.7095L9.78159 13.6895L11.1353 13.9281L11.8647 9.79623C11.884 9.68732 11.8767 9.57537 11.8435 9.46988C11.8103 9.36438 11.7521 9.26846 11.6739 9.19026C11.5957 9.11205 11.4998 9.05386 11.3943 9.02064C11.2888 8.98742 11.1768 8.98014 11.0679 8.99942L6.93603 9.72885L7.17528 11.0832L9.16284 10.7319C6.04513 13.9297 4.304 18.2215 4.31253 22.6875C4.31117 23.4073 4.3571 24.1264 4.45003 24.8401Z" fill="white"/>
</svg>
