<svg xmlns="http://www.w3.org/2000/svg" version="1.1" xmlns:xlink="http://www.w3.org/1999/xlink" width="512" height="512" x="0" y="0" viewBox="0 0 1707 1707" style="enable-background:new 0 0 512 512" xml:space="preserve" fill-rule="evenodd" class=""><g><path fill="#333333" d="M1046 311H779l-42 312 336-69zm-260-53h253l-15-135H804zM682 634l72-541c2-13 13-23 27-23h266c14 0 25 10 26 24l52 449 460-94c16-3 31 9 31 26v967h64c14 0 26 12 26 26v142c0 15-12 26-26 26H27c-15 0-27-11-27-26v-142c0-14 12-26 27-26h64V777c0-13 9-24 21-26l67-14 86-644c2-13 13-23 26-23h267c13 0 25 10 26 24l21 187h1l41 360zm429-34c-1 0-2 1-3 1-39 8-338 71-393 80l-82 17c-1 0-2 1-3 1l-179 36-307 63v644h154v-398c0-14 12-26 27-26h388c15 0 27 12 27 26v398h823V508zM556 311H289l-55 415 361-74zm-259-53h253l-16-135H315zm390 1184v-371H546v371zm-194-371H351v371h142zm641 186H949c-14 0-26-12-26-26v-196c0-14 12-26 26-26h185c14 0 26 12 26 26v195c0 15-12 27-26 27zm-158-53h131v-142H976zm468 53h-185c-14 0-26-12-26-26v-196c0-14 12-26 26-26h185c14 0 26 12 26 26v195c0 15-11 27-26 27zm-158-53h131v-142h-131zm-152-238H949c-14 0-26-12-26-26V745c0-15 12-27 26-27h185c14 0 26 12 26 27v195c0 14-12 26-26 26zm-158-53h131V771H976zm468 53h-185c-14 0-26-12-26-26V745c0-15 12-27 26-27h185c14 0 26 12 26 27v195c0 14-11 26-26 26zm-158-53h131V771h-131zM53 1584h1600v-89H53z" opacity="1" data-original="#333333" class=""></path><path fill="#99FFFF" d="M687 1071H546v371h141zM493 1442v-371H351v371z" opacity="1" data-original="#99ffff"></path><path fill="#CCCCCC" d="M325 1018h388c15 0 27 12 27 26v398h823V508l-452 92c-1 0-2 1-3 1-39 8-338 71-393 80l-82 17c-1 0-2 1-3 1l-179 36-307 63v644h154v-398c0-14 12-26 27-26zm598 213v-196c0-14 12-26 26-26h185c14 0 26 12 26 26v195c0 15-12 27-26 27H949c-14 0-26-12-26-26zm310 0v-196c0-14 12-26 26-26h185c14 0 26 12 26 26v195c0 15-11 27-26 27h-185c-14 0-26-12-26-26zM949 966c-14 0-26-12-26-26V745c0-15 12-27 26-27h185c14 0 26 12 26 27v195c0 14-12 26-26 26zm310 0c-14 0-26-12-26-26V745c0-15 12-27 26-27h185c14 0 26 12 26 27v195c0 14-11 26-26 26z" opacity="1" data-original="#cccccc"></path><path fill="#58535A" d="M713 1495H53v89h1600v-89h-64z" opacity="1" data-original="#58535a"></path><g fill="#99FFFF"><path d="M976 1204h131v-142H976zM1286 1062v142h131v-142zM1286 913h131V771h-131zM1107 913V771H976v142z" fill="#99FFFF" opacity="1" data-original="#99ffff"></path></g><path fill="#FF700D" d="m737 623 336-69-27-243H779zM786 258h253l-15-135H804zM550 258l-16-135H315l-18 135zM556 311H289l-55 415 361-74z" opacity="1" data-original="#ff700d" class=""></path></g></svg>