<svg width="41" height="37" viewBox="0 0 41 37" fill="none" xmlns="http://www.w3.org/2000/svg">
<path d="M13.9898 36.9873H0.969844C0.620719 36.9873 0.339844 36.6997 0.339844 36.3423V24.7027C0.339844 24.3453 0.620719 24.0577 0.969844 24.0577H13.9898C14.339 24.0577 14.6198 24.3453 14.6198 24.7027V36.3423C14.6198 36.6971 14.339 36.9873 13.9898 36.9873ZM1.59984 35.6973H13.3598V25.3477H1.59984V35.6973Z" fill="white"/>
<path d="M9.1758 28.82H5.7843C5.43517 28.82 5.1543 28.5324 5.1543 28.175V24.7027C5.1543 24.3453 5.43517 24.0577 5.7843 24.0577H9.1758C9.52492 24.0577 9.8058 24.3453 9.8058 24.7027V28.175C9.8058 28.5297 9.52492 28.82 9.1758 28.82ZM6.4143 27.53H8.5458V25.3477H6.4143V27.53ZM27.01 36.9873H13.99C13.6409 36.9873 13.36 36.6997 13.36 36.3423V24.7027C13.36 24.3453 13.6409 24.0577 13.99 24.0577H27.01C27.3592 24.0577 27.64 24.3453 27.64 24.7027V36.3423C27.64 36.6971 27.3592 36.9873 27.01 36.9873ZM14.62 35.6973H26.38V25.3477H14.62V35.6973Z" fill="white"/>
<path d="M22.1958 28.82H18.8043C18.4552 28.82 18.1743 28.5324 18.1743 28.175V24.7027C18.1743 24.3453 18.4552 24.0577 18.8043 24.0577H22.1958C22.5449 24.0577 22.8258 24.3453 22.8258 24.7027V28.175C22.8258 28.5297 22.5449 28.82 22.1958 28.82ZM19.4343 27.53H21.5658V25.3477H19.4343V27.53ZM40.0301 36.9873H27.0101C26.6609 36.9873 26.3801 36.6997 26.3801 36.3423V24.7027C26.3801 24.3453 26.6609 24.0577 27.0101 24.0577H40.0301C40.3792 24.0577 40.6601 24.3453 40.6601 24.7027V36.3423C40.6601 36.6971 40.3792 36.9873 40.0301 36.9873ZM27.6401 35.6973H39.4001V25.3477H27.6401V35.6973Z" fill="white"/>
<path d="M35.2158 28.82H31.8243C31.4752 28.82 31.1943 28.5324 31.1943 28.175V24.7027C31.1943 24.3453 31.4752 24.0577 31.8243 24.0577H35.2158C35.565 24.0577 35.8458 24.3453 35.8458 24.7027V28.175C35.8458 28.5297 35.565 28.82 35.2158 28.82ZM32.4543 27.53H34.5858V25.3477H32.4543V27.53Z" fill="white"/>
<path d="M20.4996 25.3451H7.47961C7.13048 25.3451 6.84961 25.0575 6.84961 24.7001V21.1741C6.84961 20.8167 7.13048 20.5291 7.47961 20.5291C7.82873 20.5291 8.10961 20.8167 8.10961 21.1741V24.0551H19.8696V13.7055H17.5439C17.1947 13.7055 16.9139 13.418 16.9139 13.0605C16.9139 12.7031 17.1947 12.4155 17.5439 12.4155H20.4996C20.8487 12.4155 21.1296 12.7031 21.1296 13.0605V24.7001C21.1296 25.0575 20.8487 25.3451 20.4996 25.3451Z" fill="white"/>
<path d="M33.5196 25.3451H20.4996C20.1505 25.3451 19.8696 25.0575 19.8696 24.7001V13.0605C19.8696 12.7031 20.1505 12.4155 20.4996 12.4155H33.5196C33.8688 12.4155 34.1496 12.7031 34.1496 13.0605V24.7001C34.1496 25.0575 33.8688 25.3451 33.5196 25.3451ZM21.1296 24.0551H32.8896V13.7055H21.1296V24.0551Z" fill="white"/>
<path d="M28.7056 17.1778H25.3141C24.965 17.1778 24.6841 16.8902 24.6841 16.5328V13.0605C24.6841 12.7031 24.965 12.4155 25.3141 12.4155H28.7056C29.0547 12.4155 29.3356 12.7031 29.3356 13.0605V16.5328C29.3356 16.8902 29.0547 17.1778 28.7056 17.1778ZM25.9441 15.8878H28.0756V13.7055H25.9441V15.8878Z" fill="white"/>
<path d="M14.0029 5.63225H7.05187C6.70275 5.63225 6.42188 5.34469 6.42188 4.98725V2.64375C6.42188 1.94231 6.981 1.36987 7.66612 1.36987H8.67675C9.02587 1.36987 9.30675 1.65744 9.30675 2.01487C9.30675 2.37231 9.02587 2.65987 8.67675 2.65987H7.68187V4.33956H13.3729V2.65987H12.378C12.0289 2.65987 11.748 2.37231 11.748 2.01487C11.748 1.65744 12.0289 1.36987 12.378 1.36987H13.3886C14.0737 1.36987 14.6329 1.94231 14.6329 2.64375V4.98456C14.6329 5.342 14.352 5.63225 14.0029 5.63225Z" fill="white"/>
<path d="M17.5441 21.8191H3.51086C3.16173 21.8191 2.88086 21.5315 2.88086 21.1741V3.16246C2.88086 2.80502 3.16173 2.51746 3.51086 2.51746H7.05198C7.40111 2.51746 7.68198 2.80502 7.68198 3.16246C7.68198 3.51989 7.40111 3.80746 7.05198 3.80746H4.14086V20.5291H16.9141V3.80746H14.003C13.6539 3.80746 13.373 3.51989 13.373 3.16246C13.373 2.80502 13.6539 2.51746 14.003 2.51746H17.5441C17.8932 2.51746 18.1741 2.80502 18.1741 3.16246V21.1741C18.1741 21.5315 17.8932 21.8191 17.5441 21.8191Z" fill="white"/>
<path d="M12.3779 3.57095H8.67663C8.32751 3.57095 8.04663 3.28338 8.04663 2.92595V0.657695C8.04663 0.300258 8.32751 0.0126953 8.67663 0.0126953H12.3779C12.727 0.0126953 13.0079 0.300258 13.0079 0.657695V2.92595C13.0079 3.28338 12.727 3.57095 12.3779 3.57095ZM9.30663 2.28095H11.7479V1.3027H9.30663V2.28095ZM14.8506 8.77663H9.59801C9.24888 8.77663 8.96801 8.48907 8.96801 8.13163C8.96801 7.7742 9.24888 7.48663 9.59801 7.48663H14.8506C15.1998 7.48663 15.4806 7.7742 15.4806 8.13163C15.4806 8.48907 15.1971 8.77663 14.8506 8.77663ZM6.64488 9.03732C6.48476 9.03732 6.32201 8.97551 6.19863 8.84919L5.76026 8.40038C5.51351 8.14776 5.51351 7.73926 5.76026 7.48932C6.00438 7.23938 6.39813 7.23669 6.64226 7.48126L7.21188 6.89807C7.45863 6.64544 7.85763 6.64544 8.10176 6.89807C8.34851 7.15069 8.34851 7.5592 8.10176 7.80913L7.08851 8.84651C6.96776 8.97282 6.80501 9.03732 6.64488 9.03732ZM14.8506 12.2489H9.59801C9.24888 12.2489 8.96801 11.9613 8.96801 11.6039C8.96801 11.2464 9.24888 10.9589 9.59801 10.9589H14.8506C15.1998 10.9589 15.4806 11.2464 15.4806 11.6039C15.4806 11.9613 15.1971 12.2489 14.8506 12.2489ZM6.64488 12.5096C6.47688 12.5096 6.31676 12.4424 6.19863 12.3214L5.76026 11.8726C5.51351 11.62 5.51351 11.2115 5.76026 10.9616C6.00438 10.7116 6.39813 10.7089 6.64226 10.9535L7.21188 10.3703C7.45863 10.1177 7.85763 10.1177 8.10176 10.3703C8.34851 10.6229 8.34851 11.0314 8.10176 11.2814L7.08851 12.3188C6.97038 12.4397 6.81026 12.5096 6.64488 12.5096ZM14.8506 15.7211H9.59801C9.24888 15.7211 8.96801 15.4336 8.96801 15.0761C8.96801 14.7187 9.24888 14.4311 9.59801 14.4311H14.8506C15.1998 14.4311 15.4806 14.7187 15.4806 15.0761C15.4806 15.4336 15.1971 15.7211 14.8506 15.7211ZM6.64488 15.9818C6.47688 15.9818 6.31676 15.9146 6.19863 15.7937L5.76026 15.3449C5.51351 15.0923 5.51351 14.6838 5.76026 14.4338C6.00438 14.1839 6.39813 14.1812 6.64226 14.4258L7.21188 13.8426C7.45863 13.5899 7.85763 13.5899 8.10176 13.8426C8.34851 14.0952 8.34851 14.5037 8.10176 14.7536L7.08851 15.791C6.97038 15.9119 6.81026 15.9818 6.64488 15.9818ZM14.8506 19.1934H9.59801C9.24888 19.1934 8.96801 18.9058 8.96801 18.5484C8.96801 18.1909 9.24888 17.9034 9.59801 17.9034H14.8506C15.1998 17.9034 15.4806 18.1909 15.4806 18.5484C15.4806 18.9058 15.1971 19.1934 14.8506 19.1934ZM6.64488 19.4514C6.48476 19.4514 6.32201 19.3896 6.19863 19.2633L5.76026 18.8144C5.51351 18.5618 5.51351 18.1533 5.76026 17.9034C6.00438 17.6534 6.39813 17.6508 6.64226 17.8953L7.21188 17.3121C7.45863 17.0595 7.85763 17.0595 8.10176 17.3121C8.34588 17.5648 8.34851 17.9733 8.10176 18.2232L7.08851 19.2606C6.96776 19.3896 6.80501 19.4514 6.64488 19.4514Z" fill="white"/>
</svg>
