<svg width="24" height="24" viewBox="0 0 24 24" fill="none" xmlns="http://www.w3.org/2000/svg">
<path d="M23.9945 22.2977L22.109 11.9097C22.0997 11.8584 22.0792 11.8099 22.0489 11.7676C22.0186 11.7253 21.9792 11.6902 21.9337 11.6649L17.188 9.0254C17.1275 8.99192 17.0585 8.97707 16.9896 8.98269L17.8529 20.1206L17.824 20.1335L23.5036 22.6815C23.5621 22.7078 23.6267 22.7176 23.6904 22.7099C23.7541 22.7021 23.8144 22.6771 23.8649 22.6376C23.9155 22.5981 23.9543 22.5456 23.9771 22.4857C23.9999 22.4258 24.006 22.3608 23.9945 22.2977ZM12.0002 11.5488L7.14651 9.02076C7.08916 8.99107 7.02474 8.97777 6.96032 8.98232C6.97715 8.98129 6.99407 8.98138 7.01085 8.98269L6.14746 20.1206L11.8559 22.6815C11.9013 22.7019 11.9505 22.7124 12.0002 22.7124V11.5488Z" fill="#44C868"/>
<path d="M7.0106 8.98285C6.94169 8.97723 6.87265 8.99207 6.81213 9.02551L2.06637 11.665C2.02086 11.6903 1.98154 11.7254 1.95123 11.7677C1.92092 11.81 1.90039 11.8586 1.8911 11.9098L0.00564731 22.2978C-0.0057952 22.3609 0.000222193 22.4259 0.0230491 22.4858C0.0458759 22.5457 0.084644 22.5982 0.135163 22.6377C0.185689 22.6773 0.246049 22.7022 0.309731 22.71C0.373412 22.7177 0.437998 22.7079 0.496522 22.6816L6.14515 20.1475L7.0106 8.98285ZM16.9893 8.98262C16.942 8.9861 16.8958 8.99914 16.8536 9.02096L12 11.5489V22.7126H12C12.0497 22.7126 12.0989 22.7021 12.1443 22.6817L17.8527 20.1207L16.9893 8.98262Z" fill="#4CE166"/>
<path d="M1.31954 15.0576L0.936523 17.1679L6.60812 14.1723L6.73979 12.4736L6.76163 12.1919L1.31954 15.0576Z" fill="#FFDB56"/>
<path d="M6.65932 13.5137L6.60827 14.1724L0.936679 17.168L0.00564731 22.2976C-0.0057952 22.3607 0.000222193 22.4257 0.0230491 22.4856C0.0458759 22.5456 0.084644 22.5981 0.135163 22.6376C0.185689 22.6771 0.246049 22.7021 0.309731 22.7098C0.373412 22.7175 0.437998 22.7078 0.496522 22.6815L6.14515 20.1474L6.65932 13.5137Z" fill="#A8EEFC"/>
<path d="M12.0015 12.9412L6.76191 12.192L6.6084 14.1725L12.0001 22.3605V19.3831L8.78274 14.317L12.0015 14.702V12.9412ZM21.5601 11.4572L19.2803 10.1892L17.1221 10.6935L17.1491 11.0421L17.2557 12.4171L21.5601 11.4572Z" fill="#FFBB24"/>
<path d="M17.447 14.8862L17.2427 12.2496L17.122 10.6934L12.0015 12.9411V14.7018L15.3463 13.2473L17.447 14.8862Z" fill="#FFDB56"/>
<path d="M23.9941 22.2976L23.5205 19.6883L17.2554 12.417L17.4468 14.8863L23.872 22.631C23.9201 22.5913 23.9568 22.5395 23.9782 22.4809C23.9997 22.4223 24.0052 22.359 23.9941 22.2976Z" fill="#FFBB24"/>
<path d="M12.0227 1.28735C9.3057 1.28735 7.09521 3.49601 7.09521 6.21082C7.09521 7.89017 7.89251 9.69317 9.46503 11.5697C10.62 12.9479 11.7592 13.8344 11.8072 13.8715C11.8689 13.9192 11.9447 13.9451 12.0228 13.9451C12.1008 13.9451 12.1766 13.9192 12.2383 13.8715C12.2862 13.8344 13.4255 12.9479 14.5805 11.5697C16.153 9.69317 16.9503 7.89021 16.9503 6.21082C16.9502 3.49601 14.7397 1.28735 12.0227 1.28735ZM13.8476 6.21078C13.8476 7.21774 13.0305 8.03412 12.0227 8.03412C11.0149 8.03412 10.1979 7.21779 10.1979 6.21078C10.1979 5.20376 11.0149 4.38743 12.0227 4.38743C13.0305 4.38743 13.8476 5.20381 13.8476 6.21078Z" fill="#FF4A4A"/>
<path d="M12.0228 1.28735C11.8074 1.28735 11.5953 1.30132 11.3872 1.32823C13.8052 1.64074 15.6792 3.71117 15.6792 6.21082C15.6792 7.89017 14.8819 9.69317 13.3094 11.5697C12.5666 12.456 11.8309 13.1384 11.3873 13.5229C11.6335 13.7363 11.7902 13.8582 11.8073 13.8715C11.869 13.9192 11.9448 13.9451 12.0228 13.9451C12.1009 13.9451 12.1767 13.9192 12.2384 13.8715C12.2863 13.8344 13.4256 12.9479 14.5806 11.5697C16.1531 9.69317 16.9504 7.89021 16.9504 6.21082C16.9503 3.49601 14.7398 1.28735 12.0228 1.28735Z" fill="#E7343F"/>
<path d="M12.1443 22.6815L14.267 21.7292L12 19.3831V22.7124H12C12.0498 22.7124 12.0989 22.7019 12.1443 22.6815Z" fill="#FFDB56"/>
<path d="M22.1086 11.9096C22.0993 11.8583 22.0787 11.8098 22.0484 11.7675C22.0181 11.7252 21.9788 11.6901 21.9333 11.6648L21.5597 11.457L17.2553 12.4169L23.5204 19.6882L22.1086 11.9096ZM11.9997 22.7123C11.9998 22.7123 11.9998 22.7123 11.9997 22.7123V22.3604L6.60808 14.1723L6.14697 20.1205L11.8555 22.6815C11.9008 22.7018 11.95 22.7123 11.9997 22.7123Z" fill="#1EA4E9"/>
</svg>
