<svg width="44" height="43" viewBox="0 0 44 43" fill="none" xmlns="http://www.w3.org/2000/svg">
<g clip-path="url(#clip0_388_545)">
<path d="M22 17.3848C26.0289 17.3848 29.3066 14.107 29.3066 10.0781C29.3066 6.04923 26.0289 2.77148 22 2.77148C17.9711 2.77148 14.6934 6.04923 14.6934 10.0781C14.6934 14.107 17.9711 17.3848 22 17.3848ZM22 5.29102C24.6396 5.29102 26.7871 7.4385 26.7871 10.0781C26.7871 12.7178 24.6396 14.8652 22 14.8652C19.3604 14.8652 17.2129 12.7178 17.2129 10.0781C17.2129 7.4385 19.3604 5.29102 22 5.29102ZM36.7812 17.3848C39.3282 17.3848 41.4004 15.3126 41.4004 12.7656C41.4004 10.2186 39.3282 8.14648 36.7812 8.14648C34.2343 8.14648 32.1621 10.2186 32.1621 12.7656C32.1621 15.3126 34.2343 17.3848 36.7812 17.3848ZM36.7812 10.666C37.939 10.666 38.8809 11.6079 38.8809 12.7656C38.8809 13.9233 37.939 14.8652 36.7812 14.8652C35.6235 14.8652 34.6816 13.9233 34.6816 12.7656C34.6816 11.6079 35.6235 10.666 36.7812 10.666ZM37.7975 20.2402H35.849C33.553 20.2402 31.5709 21.5967 30.6678 23.5452C28.8083 21.5153 26.1373 20.2402 23.174 20.2402H20.8261C17.8628 20.2402 15.1918 21.5153 13.3323 23.5452C12.4291 21.5967 10.447 20.2402 8.15098 20.2402H6.20254C3.05816 20.2402 0.5 22.7829 0.5 25.9083V35.0803C0.5 36.4371 1.60809 37.541 2.97015 37.541H10.6738C10.803 39.0443 12.0671 40.2285 13.6034 40.2285H30.3967C31.9329 40.2285 33.197 39.0443 33.3263 37.541H40.9419C42.3525 37.541 43.5001 36.398 43.5001 34.9929V25.9083C43.5 22.7829 40.9418 20.2402 37.7975 20.2402ZM3.01953 25.9083C3.01953 24.1722 4.44743 22.7598 6.20254 22.7598H8.15098C9.90608 22.7598 11.334 24.1722 11.334 25.9083V26.7709C10.4868 28.9767 10.6621 30.2986 10.6621 35.0215H3.01953V25.9083ZM30.8184 37.2873C30.8182 37.3991 30.7738 37.5063 30.6947 37.5854C30.6157 37.6644 30.5085 37.7089 30.3967 37.709H13.6033C13.4915 37.7089 13.3843 37.6644 13.3053 37.5853C13.2262 37.5063 13.1818 37.3991 13.1816 37.2873V30.4042C13.1816 26.189 16.6109 22.7598 20.826 22.7598H23.1739C27.3891 22.7598 30.8184 26.189 30.8184 30.4041V37.2873ZM40.9805 34.9929C40.9805 35.0364 41.4501 35.0215 33.3379 35.0215C33.3379 30.2637 33.5118 28.9731 32.666 26.7709V25.9083C32.666 24.1722 34.0939 22.7598 35.849 22.7598H37.7975C39.5526 22.7598 40.9805 24.1722 40.9805 25.9083V34.9929ZM7.21875 17.3848C9.76574 17.3848 11.8379 15.3126 11.8379 12.7656C11.8379 10.2186 9.76574 8.14648 7.21875 8.14648C4.67176 8.14648 2.59961 10.2186 2.59961 12.7656C2.59961 15.3126 4.67176 17.3848 7.21875 17.3848ZM7.21875 10.666C8.37647 10.666 9.31836 11.6079 9.31836 12.7656C9.31836 13.9233 8.37647 14.8652 7.21875 14.8652C6.06103 14.8652 5.11914 13.9233 5.11914 12.7656C5.11914 11.6079 6.06103 10.666 7.21875 10.666Z" fill="white"/>
</g>
<defs>
<clipPath id="clip0_388_545">
<rect width="43" height="43" fill="white" transform="translate(0.5)"/>
</clipPath>
</defs>
</svg>
