<svg width="44" height="43" viewBox="0 0 44 43" fill="none" xmlns="http://www.w3.org/2000/svg">
<path d="M1.20258 43H32.4188C32.8318 43 33.1239 42.6188 33.1239 42.2054V26.0684L43.1188 16.0727C43.2601 15.9339 43.3405 15.7446 43.3423 15.5464C43.3442 15.3483 43.2673 15.1576 43.1286 15.0161L39.1514 11.0337C39.0076 10.8934 38.8146 10.8148 38.6137 10.8147C38.4128 10.8146 38.2198 10.8929 38.0757 11.033L33.1239 15.9549V8.36163C33.1278 8.26471 33.1123 8.16798 33.0783 8.07713C33.0443 7.98628 32.9926 7.90312 32.926 7.83254L25.3696 0.242109C25.3035 0.169431 25.2236 0.110604 25.1346 0.0690431C25.0456 0.0274817 24.9492 0.00401335 24.8511 0L1.20258 0C0.78997 0 0.5 0.381204 0.5 0.794191V42.2058C0.5 42.6188 0.78997 43 1.20258 43ZM25.0767 26.7921L27.3809 29.0962L23.9196 30.2534L25.0767 26.7921ZM28.7636 28.3637L25.8089 25.4093L35.2984 15.9409L38.232 18.8746L28.7636 28.3637ZM38.6274 12.6196L41.5533 15.5454L39.288 17.816L36.3573 14.8845L38.6274 12.6196ZM25.6457 2.59954L30.6136 7.57174H25.6457V2.59954ZM1.99565 1.49565H24.15V8.36163C24.1455 8.45509 24.1606 8.54846 24.1943 8.63577C24.2279 8.72309 24.2794 8.80243 24.3454 8.86875C24.4112 8.93517 24.4902 8.98714 24.5773 9.02135C24.6644 9.05555 24.7576 9.07123 24.8511 9.06739H31.6283V17.4472L24.2011 24.8788C24.1227 24.9553 24.0643 25.05 24.031 25.1544L22.9764 28.3239H6.82848C6.63014 28.3239 6.43993 28.4027 6.29969 28.5429C6.15944 28.6832 6.08065 28.8734 6.08065 29.0717C6.08065 29.2701 6.15944 29.4603 6.29969 29.6005C6.43993 29.7408 6.63014 29.8196 6.82848 29.8196H22.477L22.0265 31.1845C21.9825 31.3149 21.976 31.455 22.0079 31.5889C22.0398 31.7227 22.1087 31.8449 22.2068 31.9414C22.2593 31.9941 22.3189 32.063 22.382 32.063H6.82838C6.63005 32.063 6.43984 32.1418 6.29959 32.2821C6.15935 32.4223 6.08056 32.6125 6.08056 32.8109C6.08056 33.0092 6.15935 33.1994 6.29959 33.3397C6.43984 33.4799 6.63005 33.5587 6.82838 33.5587H26.7396C27.153 33.5587 27.4875 33.2239 27.4875 32.8109C27.4875 32.3979 27.153 32.063 26.7396 32.063H23.1229L29.0013 30.1142C29.1047 30.0802 29.198 30.021 29.2727 29.9419L31.6283 27.5673V41.5043H1.99565V1.49565Z" fill="white"/>
<path d="M26.7395 35.8022H6.82839C6.63006 35.8022 6.43984 35.881 6.2996 36.0213C6.15935 36.1615 6.08057 36.3517 6.08057 36.5501C6.08057 36.7484 6.15935 36.9386 6.2996 37.0788C6.43984 37.2191 6.63006 37.2979 6.82839 37.2979H26.7396C27.153 37.2979 27.4875 36.963 27.4875 36.5501C27.4875 36.1371 27.153 35.8022 26.7396 35.8022H26.7395ZM6.82839 26.0805H17.3917C17.8051 26.0805 18.1395 25.7457 18.1395 25.3327C18.1395 24.9197 17.8051 24.5848 17.3917 24.5848H6.82839C6.63006 24.5848 6.43984 24.6636 6.2996 24.8039C6.15935 24.9441 6.08057 25.1343 6.08057 25.3327C6.08057 25.531 6.15935 25.7212 6.2996 25.8615C6.43984 26.0017 6.63006 26.0805 6.82839 26.0805Z" fill="white"/>
</svg>
