<svg width="45" height="44" viewBox="0 0 45 44" fill="none" xmlns="http://www.w3.org/2000/svg">
<path d="M7.01077 12.6676H16.9017C17.0726 12.6676 17.2365 12.5997 17.3574 12.4788C17.4783 12.358 17.5462 12.194 17.5462 12.0231C17.5462 11.8521 17.4783 11.6882 17.3574 11.5673C17.2365 11.4464 17.0726 11.3785 16.9017 11.3785H7.01077C6.83983 11.3785 6.67589 11.4464 6.55501 11.5673C6.43414 11.6882 6.36623 11.8521 6.36623 12.0231C6.36623 12.194 6.43414 12.358 6.55501 12.4788C6.67589 12.5997 6.83983 12.6676 7.01077 12.6676ZM7.01077 26.8473C6.83983 26.8473 6.67589 26.9152 6.55501 27.0361C6.43414 27.1569 6.36623 27.3209 6.36623 27.4918C6.36623 27.6628 6.43414 27.8267 6.55501 27.9476C6.67589 28.0684 6.83983 28.1364 7.01077 28.1364H17.761C17.932 28.1364 18.0959 28.0684 18.2168 27.9476C18.3377 27.8267 18.4056 27.6628 18.4056 27.4918C18.4056 27.3209 18.3377 27.1569 18.2168 27.0361C18.0959 26.9152 17.932 26.8473 17.761 26.8473H7.01077ZM26.3038 17.8239C26.4748 17.8239 26.6387 17.7559 26.7596 17.6351C26.8804 17.5142 26.9484 17.3503 26.9484 17.1793C26.9484 17.0084 26.8804 16.8444 26.7596 16.7236C26.6387 16.6027 26.4748 16.5348 26.3038 16.5348H19.2344C19.0635 16.5348 18.8996 16.6027 18.7787 16.7236C18.6578 16.8444 18.5899 17.0084 18.5899 17.1793C18.5899 17.3503 18.6578 17.5142 18.7787 17.6351C18.8996 17.7559 19.0635 17.8239 19.2344 17.8239H26.3038ZM6.83691 17.8239H16.2266C16.3976 17.8239 16.5615 17.7559 16.6824 17.6351C16.8032 17.5142 16.8711 17.3503 16.8711 17.1793C16.8711 17.0084 16.8032 16.8444 16.6824 16.7236C16.5615 16.6027 16.3976 16.5348 16.2266 16.5348H6.83691C6.66597 16.5348 6.50203 16.6027 6.38116 16.7236C6.26029 16.8444 6.19238 17.0084 6.19238 17.1793C6.19238 17.3503 6.26029 17.5142 6.38116 17.6351C6.50203 17.7559 6.66597 17.8239 6.83691 17.8239ZM6.83691 22.9801H21.9586C22.1295 22.9801 22.2934 22.9122 22.4143 22.7913C22.5352 22.6705 22.6031 22.5065 22.6031 22.3356C22.6031 22.1646 22.5352 22.0007 22.4143 21.8798C22.2934 21.7589 22.1295 21.691 21.9586 21.691H6.83691C6.66597 21.691 6.50203 21.7589 6.38116 21.8798C6.26029 22.0007 6.19238 22.1646 6.19238 22.3356C6.19238 22.5065 6.26029 22.6705 6.38116 22.7913C6.50203 22.9122 6.66597 22.9801 6.83691 22.9801ZM6.83691 33.2926H19.3804C19.5514 33.2926 19.7153 33.2247 19.8362 33.1038C19.9571 32.983 20.025 32.819 20.025 32.6481C20.025 32.4771 19.9571 32.3132 19.8362 32.1923C19.7153 32.0714 19.5514 32.0035 19.3804 32.0035H6.83691C6.66597 32.0035 6.50203 32.0714 6.38116 32.1923C6.26029 32.3132 6.19238 32.4771 6.19238 32.6481C6.19238 32.819 6.26029 32.983 6.38116 33.1038C6.50203 33.2247 6.66597 33.2926 6.83691 33.2926Z" fill="white"/>
<path d="M44.4933 37.0066C44.4506 36.4109 44.1773 35.5343 43.1186 34.7371L37.5159 30.3077L38.7897 29.0346C39.0343 29.1515 39.3086 29.2152 39.5979 29.2153H39.5986C40.2102 29.2153 40.8322 28.9425 41.3053 28.467C41.3068 28.4655 41.3082 28.464 41.3097 28.4624C42.1916 27.5719 42.2946 26.2298 41.5381 25.4677L34.9731 18.8679C34.3864 18.2585 33.382 18.2137 32.6405 18.6153V13.0207C32.6405 12.1602 32.302 11.351 31.6875 10.7424L21.7978 0.947034C21.1837 0.338769 20.367 0.00378418 19.4982 0.00378418H4.62079C2.3486 0.00378418 0.5 1.83417 0.5 4.08392V6.47342C0.5 6.64436 0.567906 6.8083 0.688779 6.92917C0.809652 7.05004 0.973591 7.11795 1.14453 7.11795C1.31547 7.11795 1.47941 7.05004 1.60028 6.92917C1.72116 6.8083 1.78906 6.64436 1.78906 6.47342V4.08392C1.78906 2.54487 3.05939 1.29276 4.62079 1.29276L19.9358 1.34398V9.62706C19.9358 11.2661 21.2792 12.5995 22.9305 12.5995H31.3034L31.3516 20.1236C31.1831 20.6491 31.2066 21.1985 31.4305 21.6531L25.6105 27.4701C24.8427 27.0985 23.809 27.2976 23.0789 28.0242C22.2547 28.8166 22.0194 30.2051 22.8422 31.0245L29.426 37.6071C29.9237 38.109 30.6861 38.2236 31.3516 38.019C31.4062 38.8757 31.1632 39.733 30.5299 40.3422C29.9881 40.8801 29.2676 41.1766 28.4966 41.1678L27.1768 41.1583C26.8774 40.5637 26.3345 40.1121 25.6796 39.9355V39.3899C25.6796 38.0867 24.6195 37.0266 23.3163 37.0266H15.3803C14.0772 37.0266 13.0171 38.0867 13.0171 39.3899V39.9355C12.3982 40.1024 11.8794 40.5147 11.5715 41.0614H4.62079C3.05939 41.0614 1.78906 39.8093 1.78906 38.2702V9.47899C1.78906 9.30805 1.72116 9.14411 1.60028 9.02324C1.47941 8.90237 1.31547 8.83446 1.14453 8.83446C0.973591 8.83446 0.809652 8.90237 0.688779 9.02324C0.567906 9.14411 0.5 9.30805 0.5 9.47899L0.5 38.2702C0.5 40.52 2.3486 42.3504 4.62079 42.3504H11.2685V42.9219C11.2685 43.5143 11.7503 43.9961 12.3427 43.9961H15.2813C15.4522 43.9961 15.6161 43.9282 15.737 43.8074C15.8579 43.6865 15.9258 43.5225 15.9258 43.3516C15.9258 43.1807 15.8579 43.0167 15.737 42.8958C15.6161 42.775 15.4522 42.7071 15.2813 42.7071H12.5575V42.2172C12.5575 41.6249 13.0394 41.143 13.6318 41.143H25.0651C25.6574 41.143 26.1393 41.6249 26.1393 42.2172V42.7071H18.2891C18.1181 42.7071 17.9542 42.775 17.8333 42.8958C17.7124 43.0167 17.6445 43.1807 17.6445 43.3516C17.6445 43.5225 17.7124 43.6865 17.8333 43.8074C17.9542 43.9282 18.1181 43.9961 18.2891 43.9961H26.3541C26.9465 43.9961 27.4283 43.5143 27.4283 42.9219V42.4492C27.4662 42.4493 28.4809 42.457 28.5183 42.4568C29.6221 42.4568 30.6581 42.0313 31.4382 41.2568C32.2136 40.487 32.6406 39.4643 32.6406 38.3774V37.1247C33.1548 36.4691 33.3408 35.578 32.981 34.8404L34.2184 33.6035L38.6389 39.2237C40.2239 41.1499 41.8372 40.9561 43.4202 39.5258C44.1744 38.7699 44.5555 37.8751 44.4933 37.0066ZM15.3804 38.3157H23.3164C23.9088 38.3157 24.3906 38.7975 24.3906 39.3899V39.8539H14.3062V39.3899C14.3062 38.7975 14.7881 38.3157 15.3804 38.3157ZM32.8944 20.0088C33.2314 19.6985 33.6796 19.4795 34.0589 19.7765L40.6239 26.3764C40.8747 26.629 40.7663 27.1809 40.3918 27.5574C40.0452 27.884 39.5354 28.1116 39.175 27.738L36.7433 25.2935C36.6223 25.1743 36.4592 25.1078 36.2894 25.1082C36.1196 25.1086 35.9569 25.176 35.8365 25.2958C35.7161 25.4155 35.6479 25.5779 35.6465 25.7477C35.6452 25.9175 35.7109 26.0809 35.8294 26.2025L37.8089 28.1926C36.1027 29.8961 33.8429 32.1563 32.1372 33.8614L26.5892 28.3145L32.2762 22.6304L33.691 24.0529C33.7507 24.1129 33.8216 24.1606 33.8997 24.1932C33.9779 24.2258 34.0616 24.2427 34.1463 24.2429C34.2309 24.2431 34.3148 24.2267 34.393 24.1945C34.4713 24.1623 34.5425 24.115 34.6025 24.0553C34.7237 23.9347 34.792 23.771 34.7924 23.6001C34.7929 23.4291 34.7254 23.265 34.6049 23.1438L32.7333 21.2623C32.3911 20.9929 32.4914 20.4258 32.8944 20.0088ZM21.2249 9.62715V2.19382L30.4295 11.3105H22.9305C21.99 11.3105 21.2249 10.5554 21.2249 9.62715ZM30.3371 36.695L23.7532 30.1123C23.4573 29.7324 23.6737 29.2824 23.9821 28.9439C24.3914 28.5427 24.9567 28.4371 25.2218 28.77L31.7428 35.2896C32.0398 35.6706 31.8205 36.1241 31.5101 36.4618C31.1357 36.8361 30.5874 36.9449 30.3371 36.695ZM42.5075 38.6157C41.5316 39.5914 40.4759 39.5648 39.657 38.4331L35.1367 32.686L36.598 31.2254L42.3254 35.7533C43.4557 36.575 43.4816 37.6371 42.5075 38.6157Z" fill="white"/>
</svg>
