<svg width="45" height="44" viewBox="0 0 45 44" fill="none" xmlns="http://www.w3.org/2000/svg">
<g clip-path="url(#clip0_637_1022)">
<path d="M32.5667 41.2667C32.1667 41.2667 31.9 41.5333 31.9 41.9333V42.6667H1.83333V8.33333H8.63333C8.43333 9.06667 8.3 9.86667 8.3 10.8667C8.3 11.2667 8.56667 11.5333 8.96667 11.5333H24.8333C25.2333 11.5333 25.5 11.2667 25.5 10.8667C25.5 9.93333 25.3667 9.13333 25.1667 8.33333H31.9667V12.9333C31.9667 13.3333 32.2333 13.6 32.6333 13.6C33.0333 13.6 33.3 13.3333 33.3 12.9333V7.66667C33.3 7.26667 33.0333 7 32.6333 7H24.6333C23.9667 5.8 22.9667 4.86667 21.5667 4.2C21.4333 1.73333 19.3 0 16.9 0C14.5 0 12.3667 1.8 12.2333 4.2C11.1 4.73333 9.96667 5.53333 9.16667 7H1.16667C0.766667 7 0.5 7.26667 0.5 7.66667V43.3333C0.5 43.7333 0.766667 44 1.16667 44H32.5667C32.9667 44 33.2333 43.7333 33.2333 43.3333V41.9333C33.2333 41.6 32.9 41.2667 32.5667 41.2667ZM13.1 5.26667C13.3667 5.13333 13.5667 4.86667 13.5 4.6C13.3667 2.73333 14.9667 1.26667 16.8333 1.26667C18.7 1.26667 20.2333 2.66667 20.1667 4.6C20.1667 4.86667 20.3 5.13333 20.5667 5.26667C22.7 6.13333 23.9 7.73333 24.0333 10.2H9.63333C9.83333 7.8 10.9667 6.13333 13.1 5.26667Z" fill="white"/>
<path d="M16.8331 7.79998C18.2331 7.79998 19.4331 6.66664 19.4331 5.19998C19.4331 3.79998 18.2998 2.59998 16.8331 2.59998C15.4331 2.59998 14.2331 3.73331 14.2331 5.19998C14.2998 6.59998 15.4331 7.79998 16.8331 7.79998ZM16.8331 3.93331C17.4998 3.93331 18.0998 4.46664 18.0998 5.19998C18.0998 5.93331 17.5664 6.46664 16.8331 6.46664C16.1664 6.46664 15.5664 5.93331 15.5664 5.19998C15.5664 4.46664 16.1664 3.93331 16.8331 3.93331ZM10.2998 15.5333C10.2998 15.1333 10.0331 14.8666 9.63311 14.8666H5.09977C4.69977 14.8666 4.43311 15.1333 4.43311 15.5333V20.4C4.43311 20.8 4.69977 21.0666 5.09977 21.0666H9.63311C10.0331 21.0666 10.2998 20.8 10.2998 20.4V15.5333ZM8.96644 19.6666H5.76644V16.1333H8.96644V19.6666ZM10.2998 24.4666C10.2998 24.0666 10.0331 23.8 9.63311 23.8H5.09977C4.69977 23.8 4.43311 24.0666 4.43311 24.4666V29.3333C4.43311 29.7333 4.69977 30 5.09977 30H9.63311C10.0331 30 10.2998 29.7333 10.2998 29.3333V24.4666ZM8.96644 28.6666H5.76644V25.1333H8.96644V28.6666ZM9.63311 32.7333H5.09977C4.69977 32.7333 4.43311 33 4.43311 33.4V38.2666C4.43311 38.6666 4.69977 38.9333 5.09977 38.9333H9.63311C10.0331 38.9333 10.2998 38.6666 10.2998 38.2666V33.4C10.2998 33 9.96644 32.7333 9.63311 32.7333ZM8.96644 37.6H5.76644V34.0666H8.96644V37.6ZM44.0998 21.3333L32.0331 14.7333C31.8331 14.6 31.5664 14.6 31.4331 14.7333C29.1664 15.9333 21.6331 19.9333 19.3664 21.2C19.1664 21.3333 19.0331 21.5333 19.0331 21.8V28.6666C15.4998 28.7333 12.6998 31.6 12.6998 35.1333C12.6998 38.6666 15.5664 41.6 19.1664 41.6C22.1664 41.6 24.6998 39.5333 25.3664 36.8L31.4331 40.6666C31.6331 40.8 31.8331 40.8 32.0998 40.6666L44.2331 34.2C44.4331 34.0666 44.5664 33.8666 44.5664 33.6V21.9333C44.4998 21.6666 44.2998 21.4 44.0998 21.3333ZM31.6998 16.0666L42.4998 21.9333L39.6998 23.4666L28.8998 17.5333L31.6998 16.0666ZM37.0331 25.2666L25.8331 19.2L27.4331 18.3333L38.9664 24.6666V27.9333L37.3664 28.8V25.8666C37.3664 25.6 37.2331 25.3333 37.0331 25.2666ZM24.4331 19.9333L35.2998 25.8666L31.6998 27.8666L20.9664 21.8L24.4331 19.9333ZM19.0331 40.2C16.2331 40.2 13.8998 37.9333 13.8998 35.0666C13.8998 32.2 16.1664 29.9333 19.0331 29.9333C21.8998 29.9333 24.1664 32.2 24.1664 35.0666C24.1664 37.9333 21.8331 40.2 19.0331 40.2ZM25.4331 35.2666C25.4998 32 23.2331 29.3333 20.2331 28.8V22.8666L30.9664 28.9333V38.7333L25.4331 35.2666ZM32.3664 38.8666V29L36.0331 27V29.9333C36.0331 30.2 36.1664 30.4 36.3664 30.5333C36.4998 30.6 36.5664 30.6 36.6998 30.6C36.8331 30.6 36.8998 30.6 37.0331 30.5333L39.9664 28.9333C40.1664 28.8 40.2998 28.6 40.2998 28.3333V24.6666L43.1664 23.1333V33.2L32.3664 38.8666ZM22.3664 17.9333C22.3664 17.5333 22.0998 17.2666 21.6998 17.2666H12.1664C11.7664 17.2666 11.4998 17.5333 11.4998 17.9333C11.4998 18.3333 11.7664 18.6 12.1664 18.6H21.6998C22.0331 18.6 22.3664 18.3333 22.3664 17.9333Z" fill="white"/>
<path d="M12.0998 26.2667C11.6998 26.2667 11.4331 26.5334 11.4331 26.9334C11.4331 27.3334 11.6998 27.6001 12.0998 27.6001H17.6331C18.0331 27.6001 18.2998 27.3334 18.2998 26.9334C18.2998 26.5334 18.0331 26.2667 17.6331 26.2667H12.0998ZM22.6998 32.7334C22.4331 32.4667 22.0331 32.4667 21.7664 32.6667L17.6331 36.4667L16.2998 34.6001C16.0998 34.2667 15.6998 34.2001 15.3664 34.4667C15.0331 34.6667 14.9664 35.0667 15.2331 35.4001L16.9664 37.9334C17.0998 38.0667 17.2331 38.2001 17.4331 38.2001H17.4998C17.6331 38.2001 17.8331 38.1334 17.9664 38.0001L22.6331 33.6667C22.9664 33.4667 22.9664 33.0001 22.6998 32.7334Z" fill="white"/>
</g>
<defs>
<clipPath id="clip0_637_1022">
<rect width="44" height="44" fill="white" transform="translate(0.5)"/>
</clipPath>
</defs>
</svg>
